<?xml version="1.0" encoding="UTF-8" standalone="no"?>
<!-- Created with Inkscape (http://www.inkscape.org/) -->

<svg
   width="210mm"
   height="297mm"
   viewBox="0 0 210 297"
   version="1.1"
   id="svg5"
   inkscape:version="1.1.2 (0a00cf5339, 2022-02-04)"
   sodipodi:docname="logo3.svg"
   inkscape:export-filename="/home/lkopfova/code/caps/milasek/zola/static/images/logo3.png"
   inkscape:export-xdpi="96"
   inkscape:export-ydpi="96"
   xmlns:inkscape="http://www.inkscape.org/namespaces/inkscape"
   xmlns:sodipodi="http://sodipodi.sourceforge.net/DTD/sodipodi-0.dtd"
   xmlns="http://www.w3.org/2000/svg"
   xmlns:svg="http://www.w3.org/2000/svg">
  <sodipodi:namedview
     id="namedview7"
     pagecolor="#ffffff"
     bordercolor="#666666"
     borderopacity="1.0"
     inkscape:pageshadow="2"
     inkscape:pageopacity="0.0"
     inkscape:pagecheckerboard="0"
     inkscape:document-units="mm"
     showgrid="false"
     inkscape:zoom="1.5551585"
     inkscape:cx="446.57829"
     inkscape:cy="374.5599"
     inkscape:window-width="1850"
     inkscape:window-height="1016"
     inkscape:window-x="0"
     inkscape:window-y="0"
     inkscape:window-maximized="1"
     inkscape:current-layer="layer1" />
  <defs
     id="defs2" />
  <g
     inkscape:label="Layer 1"
     inkscape:groupmode="layer"
     id="layer1">
    <g
       aria-label="CAPS"
       id="text2762"
       style="font-weight:bold;font-size:50.8px;line-height:1.25;-inkscape-font-specification:'sans-serif Bold';fill:none;stroke:#ffffff;stroke-width:2;stroke-linecap:round;stroke-linejoin:round;stroke-opacity:1">
      <path
         d="m 62.034548,113.38479 q -2.629296,1.36426 -5.481835,2.05879 -2.852539,0.69453 -5.953125,0.69453 -9.252149,0 -14.65957,-5.15937 -5.407422,-5.18418 -5.407422,-14.039454 0,-8.880078 5.407422,-14.039453 5.407421,-5.18418 14.65957,-5.18418 3.100586,0 5.953125,0.694531 2.852539,0.694532 5.481835,2.058789 v 7.664649 q -2.654101,-1.810743 -5.233789,-2.654102 -2.579687,-0.843359 -5.432226,-0.843359 -5.109766,0 -8.036719,3.274218 -2.926953,3.274219 -2.926953,9.028907 0,5.729884 2.926953,9.004104 2.926953,3.27422 8.036719,3.27422 2.852539,0 5.432226,-0.84336 2.579688,-0.84336 5.233789,-2.65411 z"
         id="path14674"
         style="stroke:#ffffff;stroke-opacity:1" />
      <path
         d="M 92.42029,108.6719 H 77.487868 l -2.356445,6.74688 h -9.599414 l 13.716992,-37.0334 h 11.385351 l 13.716988,37.0334 H 94.751931 Z M 79.869118,101.801 H 90.014235 L 84.954079,87.06702 Z"
         id="path14676"
         style="stroke:#ffffff;stroke-opacity:1" />
      <path
         d="m 109.26268,78.38538 h 15.85019 q 7.06934,0 10.83965,3.150195 3.79512,3.12539 3.79512,8.929687 0,5.829102 -3.79512,8.979297 -3.77031,3.125391 -10.83965,3.125391 h -6.30039 v 12.84883 h -9.5498 z m 9.5498,6.920507 v 10.343555 h 5.2834 q 2.77812,0 4.29121,-1.339453 1.51309,-1.364258 1.51309,-3.844727 0,-2.480468 -1.51309,-3.819922 -1.51309,-1.339453 -4.29121,-1.339453 z"
         id="path14678"
         style="stroke:#ffffff;stroke-opacity:1" />
      <path
         d="m 172.26657,79.5512 v 7.838281 q -3.05097,-1.364258 -5.95312,-2.058789 -2.90215,-0.694531 -5.48184,-0.694531 -3.42304,0 -5.06015,0.942578 -1.63711,0.942578 -1.63711,2.926953 0,1.488281 1.0914,2.331641 1.11621,0.818554 4.01836,1.413867 l 4.06797,0.818554 q 6.17637,1.240235 8.78086,3.770313 2.60449,2.530078 2.60449,7.193363 0,6.12675 -3.64629,9.12812 -3.62148,2.97656 -11.08769,2.97656 -3.52227,0 -7.06934,-0.66972 -3.54707,-0.66973 -7.09414,-1.98438 v -8.06152 q 3.54707,1.88515 6.8461,2.85254 3.32382,0.94258 6.39961,0.94258 3.12539,0 4.7873,-1.0418 1.66191,-1.0418 1.66191,-2.97656 0,-1.73633 -1.14101,-2.67891 -1.11621,-0.94258 -4.48965,-1.68672 l -3.6959,-0.81855 q -5.55625,-1.190628 -8.13594,-3.79512 -2.55488,-2.604493 -2.55488,-7.019727 0,-5.531445 3.57188,-8.508008 3.57187,-2.976562 10.26914,-2.976562 3.05097,0 6.27558,0.471289 3.22461,0.446484 6.67246,1.364258 z"
         id="path14680"
         style="stroke:#ffffff;stroke-opacity:1" />
    </g>
    <path
       style="fill:#0000ff;fill-opacity:0.7;stroke:#000000;stroke-width:1;stroke-linecap:butt;stroke-linejoin:round;stroke-miterlimit:4;stroke-dasharray:none;stroke-opacity:1;paint-order:normal"
       d="m 35.527837,110.96045 7.427772,-5.48136 -2.01486,-3.7313 -0.558724,-4.044408 0.45901,-3.655978 0.788466,-3.049884 1.013707,-2.023861 -7.498117,-5.808686 -2.063891,3.12757 -1.48527,3.536135 -0.980313,4.359651 -0.02795,3.849484 0.379431,3.808507 1.533443,4.7244 z"
       id="path23096"
       sodipodi:nodetypes="ccccccccccccccc" />
    <path
       style="fill:#ff0000;fill-opacity:0.77;stroke:#000000;stroke-width:1;stroke-linecap:round;stroke-linejoin:round;stroke-miterlimit:4;stroke-dasharray:none;stroke-opacity:1"
       d="m 42.955609,105.47909 -7.427772,5.48136 3.672557,2.69793 4.32744,1.7567 4.775793,0.65346 5.454361,-0.36214 4.315836,-0.72665 3.960722,-1.59496 v -7.66465 l -3.682902,2.10208 -4.625157,1.03052 -3.966721,0.30057 -3.977421,-0.98936 -2.826736,-2.68486"
       id="path24649"
       sodipodi:nodetypes="cccccccccccccc" />
    <path
       style="fill:#fffffa;fill-opacity:1;stroke:#000000;stroke-width:1;stroke-linecap:round;stroke-linejoin:round;stroke-miterlimit:4;stroke-dasharray:none;stroke-opacity:1"
       d="m 35.145093,83.164975 7.498117,5.808686 1.977204,-2.417977 2.947803,-1.363295 3.856114,-0.529828 3.329127,0.180478 3.489003,1.338426 3.792087,1.952157 v -7.664648 l -3.359131,-1.545463 -3.514342,-0.96918 -3.645558,-0.125767 -4.212095,0.141634 -4.557184,0.944076 -3.421261,1.539272 -4.179884,2.711429"
       id="path26445" />
    <path
       style="fill:#ff0004;fill-opacity:0.77;stroke:#000000;stroke-width:1;stroke-linecap:butt;stroke-linejoin:miter;stroke-miterlimit:4;stroke-dasharray:none;stroke-opacity:1"
       d="m 79.955075,102.212 -9.513949,-0.4312 -4.909119,13.638 h 9.599414 l 2.356445,-6.74688 h 14.932422 l 2.331641,6.74688 h 9.599411 l -4.966537,-13.63414 -8.68079,0.19092 z"
       id="path27088"
       sodipodi:nodetypes="ccccccccccc" />
    <path
       style="fill:#ff0004;fill-opacity:0.77;stroke:#000000;stroke-width:1;stroke-linecap:round;stroke-linejoin:round;stroke-miterlimit:4;stroke-dasharray:none;stroke-opacity:1"
       d="m 75.580244,88.722331 8.520248,0.299817 0.853585,-1.95513 1.101543,2.082007 9.086942,0.09805 -4.508211,-10.861699 H 79.248999 Z"
       id="path28865"
       sodipodi:nodetypes="cccccccc" />
    <path
       style="fill:#ffffff;fill-opacity:1;stroke:#000000;stroke-width:1;stroke-linecap:round;stroke-linejoin:round;stroke-miterlimit:4;stroke-dasharray:none;stroke-opacity:1"
       d="m 70.441126,101.7808 9.513948,0.4312 4.145418,-13.189854 -8.520248,-0.299815 -5.139118,13.058469"
       id="path29368"
       sodipodi:nodetypes="ccccc" />
    <path
       style="fill:#ffffff;stroke:#000000;stroke-width:1;stroke-linecap:butt;stroke-linejoin:miter;stroke-opacity:1;fill-opacity:1;stroke-miterlimit:4;stroke-dasharray:none"
       d="m 90.014233,101.801 9.370568,-0.0164 -4.242239,-12.537587 -9.086942,-0.09805 3.958613,12.651977"
       id="path32488" />
    <path
       style="fill:#ff0008;fill-opacity:0.770039;stroke:#000000;stroke-width:1;stroke-linecap:round;stroke-linejoin:round;stroke-miterlimit:4;stroke-dasharray:none;stroke-opacity:1"
       d="m 109.45407,94.420168 -0.19139,20.998612 h 9.5498 v -12.84883 l 5.2753,0.14811 5.56916,-0.43287 3.77205,-1.37196 3.70025,-2.397773 2.178,-4.021944 -10.93347,-0.07592 -1.88906,1.096303 -3.08767,0.187382 -4.58456,-0.05184 0.13188,-1.356492 z"
       id="path32638"
       sodipodi:nodetypes="ccccccccccccccc" />
    <path
       style="fill:#ff0008;stroke:#000000;stroke-width:1;stroke-linecap:round;stroke-linejoin:round;stroke-opacity:1;stroke-miterlimit:4;stroke-dasharray:none;fill-opacity:0.77003878"
       d="m 164.92138,103.35833 9.98138,-0.26274 -0.31123,4.2167 -1.66883,3.65351 -3.34817,3.26426 -4.70575,1.60955 -6.21627,0.46725 -4.82995,-0.54525 -8.02259,-2.2776 v -8.06152 l 4.35395,2.17333 5.20507,1.36785 4.72834,0.18756 4.09919,-1.3658 1.53309,-1.78813 z"
       id="path33424" />
    <path
       style="fill:#ffffff;stroke:#000000;stroke-width:1;stroke-linecap:round;stroke-linejoin:round;stroke-opacity:1;fill-opacity:0.97676241;stroke-miterlimit:4;stroke-dasharray:none"
       d="m 109.45407,94.420168 9.49029,-0.127223 -0.13188,-8.987059 4.01418,-0.189937 4.19695,0.775399 2.94354,2.300023 0.0223,3.243482 -1.6157,2.982738 10.93347,0.07592 0.67747,-3.521025 -0.58937,-3.806685 -1.67139,-3.66505 -2.15839,-2.304897 -2.91967,-1.951069 -4.41582,-0.790279 -18.96739,-0.06913 z"
       id="path33691" />
    <path
       style="fill:#0000ff;stroke:#000000;stroke-width:1;stroke-linecap:round;stroke-linejoin:round;stroke-opacity:1;stroke-miterlimit:4;stroke-dasharray:none;fill-opacity:0.70158708"
       d="m 145.56696,88.986782 0.74718,4.553344 2.71851,3.360486 3.19653,1.81046 4.81095,1.426608 4.10663,1.12743 3.77462,2.09322 9.98138,-0.26274 -1.257,-4.053011 -2.37854,-2.802671 -3.36587,-1.92233 -3.26607,-0.761799 -3.38383,-0.84519 -3.68584,-0.947822 -2.13478,-0.854681 -1.21775,-2.268464 z"
       id="path34136" />
    <path
       style="fill:#ffffff;fill-opacity:1;stroke:#000000;stroke-width:1;stroke-linecap:round;stroke-linejoin:round;stroke-miterlimit:4;stroke-dasharray:none;stroke-opacity:1"
       d="m 145.56696,88.98678 8.64612,-0.34716 1.0066,-2.962447 4.30404,-1.311274 4.34899,0.570187 3.6317,0.682513 4.76216,1.77088 v -7.838281 l -4.51122,-1.112342 -4.41017,-0.330481 -4.3001,-0.503931 -3.57653,0.435166 -3.43079,1.141031 -3.54035,2.350056 -2.25897,3.040782 z"
       id="path35634"
       sodipodi:nodetypes="cccccccccccccccc" />
    <path
       style="fill:#ffffff;stroke:#000000;stroke-width:1;stroke-linecap:butt;stroke-linejoin:miter;stroke-opacity:1;stroke-miterlimit:4;stroke-dasharray:none;fill-opacity:1"
       d="m 154.65457,94.022409 3.65884,-0.184928 -0.724,1.456153 0.005,2.960801 3.05571,-0.07059 1.25209,-0.834331 0.1228,2.863066 -1.02461,-0.368075 -3.15641,0.148003 -2.41921,-0.977591 -3.87895,-1.074697 3.85781,-0.02097 -0.0637,-2.592546 z"
       id="path36754"
       sodipodi:nodetypes="cccccccccccccc" />
  </g>
</svg>
