<?xml version="1.0" encoding="UTF-8" standalone="no"?>
<!-- Created with Inkscape (http://www.inkscape.org/) -->

<svg
   version="1.1"
   id="svg2"
   xml:space="preserve"
   width="449.33334"
   height="145.33333"
   viewBox="0 0 449.33334 145.33333"
   sodipodi:docname="logo.svg"
   inkscape:version="1.1.2 (0a00cf5339, 2022-02-04)"
   inkscape:export-filename="/home/lkopfova/code/caps/milasek/zola/static/images/logo.png"
   inkscape:export-xdpi="96"
   inkscape:export-ydpi="96"
   xmlns:inkscape="http://www.inkscape.org/namespaces/inkscape"
   xmlns:sodipodi="http://sodipodi.sourceforge.net/DTD/sodipodi-0.dtd"
   xmlns="http://www.w3.org/2000/svg"
   xmlns:svg="http://www.w3.org/2000/svg"><defs
     id="defs6"><clipPath
       clipPathUnits="userSpaceOnUse"
       id="clipPath22"><path
         d="M 0,0 H 337 V 109 H 0 Z"
         id="path20" /></clipPath><clipPath
       clipPathUnits="userSpaceOnUse"
       id="clipPath40"><path
         d="M 0,0 H 337 V 109 H 0 Z"
         id="path38" /></clipPath><clipPath
       clipPathUnits="userSpaceOnUse"
       id="clipPath58"><path
         d="M 0,0 H 337 V 109 H 0 Z"
         id="path56" /></clipPath><clipPath
       clipPathUnits="userSpaceOnUse"
       id="clipPath76"><path
         d="M 0,0 H 337 V 109 H 0 Z"
         id="path74" /></clipPath><clipPath
       clipPathUnits="userSpaceOnUse"
       id="clipPath94"><path
         d="M 0,0 H 337 V 109 H 0 Z"
         id="path92" /></clipPath><clipPath
       clipPathUnits="userSpaceOnUse"
       id="clipPath112"><path
         d="M 0,0 H 337 V 109 H 0 Z"
         id="path110" /></clipPath><clipPath
       clipPathUnits="userSpaceOnUse"
       id="clipPath130"><path
         d="M 0,0 H 337 V 109 H 0 Z"
         id="path128" /></clipPath><clipPath
       clipPathUnits="userSpaceOnUse"
       id="clipPath148"><path
         d="M 0,0 H 337 V 109 H 0 Z"
         id="path146" /></clipPath></defs><sodipodi:namedview
     id="namedview4"
     pagecolor="#ffffff"
     bordercolor="#666666"
     borderopacity="1.0"
     inkscape:pageshadow="2"
     inkscape:pageopacity="0.0"
     inkscape:pagecheckerboard="0"
     showgrid="false"
     inkscape:zoom="2.2119583"
     inkscape:cx="255.20372"
     inkscape:cy="101.04169"
     inkscape:window-width="1850"
     inkscape:window-height="1016"
     inkscape:window-x="0"
     inkscape:window-y="0"
     inkscape:window-maximized="1"
     inkscape:current-layer="g8" /><g
     id="g8"
     inkscape:groupmode="layer"
     inkscape:label="logo"
     transform="scale(1.3333333)"><g
       id="g12"
       transform="scale(1,0.999867)"><path
         d="m 50.906,13.029 c -11.043,0 -19.73,3.696 -26.066,11.091 -6.34,7.392 -9.508,17.522 -9.508,30.387 0,12.771 2.93,22.898 8.785,30.387 5.953,7.396 14.836,11.091 26.645,11.091 4.511,0 8.785,-0.382 12.82,-1.152 4.031,-0.77 7.969,-1.727 11.809,-2.879 v 11.232 c -3.84,1.441 -7.825,2.496 -11.953,3.168 -4.036,0.672 -8.883,1.008 -14.547,1.008 -10.465,0 -19.203,-2.161 -26.211,-6.481 C 15.668,96.56 10.391,90.418 6.836,82.448 3.379,74.479 1.652,65.118 1.652,54.363 1.652,43.994 3.523,34.872 7.27,27 11.109,19.03 16.727,12.838 24.117,8.419 31.512,3.907 40.488,1.653 51.051,1.653 61.898,1.653 71.359,3.668 79.422,7.7 L 74.238,18.647 C 71.07,17.205 67.516,15.908 63.582,14.756 59.738,13.603 55.516,13.029 50.906,13.029 Z M 162.379,105.924 149.992,74.096 H 109.234 L 96.992,105.924 H 83.887 L 124.07,2.661 h 11.664 l 40.039,103.263 z M 134.582,31.465 c -0.285,-0.77 -0.766,-2.16 -1.437,-4.176 -0.672,-2.02 -1.348,-4.083 -2.02,-6.196 -0.574,-2.208 -1.055,-3.888 -1.437,-5.04 -0.672,2.977 -1.442,5.907 -2.305,8.786 -0.863,2.786 -1.586,4.993 -2.16,6.626 l -11.668,31.106 h 32.55 z M 217.105,3.09 c 13.446,0 23.239,2.641 29.383,7.923 6.145,5.282 9.215,12.721 9.215,22.323 0,5.665 -1.293,10.994 -3.887,15.987 -2.496,4.895 -6.769,8.88 -12.816,11.955 -5.953,3.07 -14.066,4.606 -24.34,4.606 h -11.812 v 40.04 H 189.887 V 3.09 Z m -1.152,11.092 h -13.105 v 40.614 h 10.371 c 9.793,0 17.09,-1.586 21.89,-4.754 4.801,-3.169 7.204,-8.544 7.204,-16.131 0,-6.622 -2.114,-11.568 -6.34,-14.834 -4.223,-3.262 -10.895,-4.895 -20.02,-4.895 z m 119.395,64.235 c 0,9.118 -3.313,16.224 -9.938,21.311 -6.625,5.091 -15.555,7.634 -26.785,7.634 -5.762,0 -11.09,-0.43 -15.988,-1.293 -4.899,-0.868 -8.977,-2.067 -12.242,-3.602 V 90.082 c 3.457,1.536 7.73,2.926 12.816,4.177 5.187,1.246 10.516,1.871 15.988,1.871 7.68,0 13.442,-1.489 17.281,-4.466 3.938,-2.976 5.907,-7.008 5.907,-12.099 0,-3.36 -0.719,-6.192 -2.16,-8.497 -1.442,-2.301 -3.938,-4.415 -7.489,-6.337 -3.457,-2.016 -8.304,-4.125 -14.547,-6.337 -8.738,-3.168 -15.363,-7.055 -19.875,-11.665 -4.418,-4.606 -6.625,-10.896 -6.625,-18.866 0,-5.473 1.391,-10.13 4.176,-13.971 2.785,-3.934 6.625,-6.961 11.524,-9.071 4.992,-2.114 10.703,-3.168 17.136,-3.168 5.664,0 10.852,0.527 15.555,1.582 4.703,1.059 8.977,2.449 12.816,4.176 l -4.031,11.091 c -3.551,-1.535 -7.441,-2.832 -11.664,-3.887 -4.129,-1.059 -8.449,-1.586 -12.965,-1.586 -6.429,0 -11.281,1.391 -14.543,4.176 -3.265,2.688 -4.898,6.29 -4.898,10.803 0,3.457 0.719,6.336 2.16,8.641 1.441,2.305 3.793,4.368 7.059,6.193 3.261,1.824 7.679,3.793 13.25,5.903 6.047,2.211 11.136,4.61 15.265,7.204 4.223,2.496 7.391,5.52 9.504,9.071 2.211,3.552 3.313,8.017 3.313,13.397 z"
         style="fill:none;stroke:#000000;stroke-width:3.30285;stroke-linecap:round;stroke-linejoin:round;stroke-miterlimit:4;stroke-dasharray:none;stroke-opacity:1"
         id="path14" /></g><g
       id="g16"><g
         id="g18" /><g
         id="g32"><g
           clip-path="url(#clipPath22)"
           opacity="0.989507"
           id="g30"><g
             id="g28"><g
               transform="scale(1,0.999867)"
               id="g26"><path
                 d="M 6.836,82.448 16.512,67.47 15.332,54.507 17.16,39.165 7.27,27 2.605,42.166 1.652,54.363 3.156,70.529 Z"
                 style="fill:#0000fd;fill-opacity:1;fill-rule:nonzero;stroke:#000000;stroke-width:1.41753;stroke-linecap:round;stroke-linejoin:round;stroke-miterlimit:4;stroke-dasharray:none;stroke-opacity:1"
                 id="path24" /></g></g></g></g></g><g
       id="g34"><g
         id="g36" /><g
         id="g50"><g
           clip-path="url(#clipPath40)"
           opacity="0.989507"
           id="g48"><g
             id="g46"><g
               transform="scale(1,0.999867)"
               id="g44"><path
                 d="m 6.836,82.448 8.117,12.225 7.727,6.208 11.316,4.738 14.895,1.743 14.547,-1.008 11.953,-3.168 V 91.954 L 63.582,94.833 50.762,95.985 34.5,92.891 24.117,84.894 16.512,67.47 Z"
                 style="fill:#ff0000;fill-opacity:1;fill-rule:nonzero;stroke:#000000;stroke-width:1.41753;stroke-linecap:round;stroke-linejoin:round;stroke-miterlimit:4;stroke-dasharray:none;stroke-opacity:1"
                 id="path42" /></g></g></g></g></g><g
       id="g52"><g
         id="g54" /><g
         id="g68"><g
           clip-path="url(#clipPath58)"
           opacity="0.989507"
           id="g66"><g
             id="g64"><g
               transform="scale(1,0.999867)"
               id="g62"><path
                 d="m 83.887,105.924 h 13.105 l 12.242,-31.828 h 40.758 l 12.387,31.828 h 13.394 l -14.812,-38.2 -62.363,0.39 z"
                 style="fill:#ff0000;fill-opacity:1;fill-rule:nonzero;stroke:#000000;stroke-width:1.41753;stroke-linecap:round;stroke-linejoin:round;stroke-miterlimit:4;stroke-dasharray:none;stroke-opacity:1"
                 id="path60" /></g></g></g></g></g><g
       id="g70"><g
         id="g72" /><g
         id="g86"><g
           clip-path="url(#clipPath76)"
           opacity="0.989507"
           id="g84"><g
             id="g82"><g
               transform="scale(1,0.999867)"
               id="g80"><path
                 d="m 111.813,34.161 12.281,0.312 5.594,-18.42 6.179,18.877 L 148.23,34.887 135.734,2.661 H 124.07 Z"
                 style="fill:#ff0000;fill-opacity:1;fill-rule:nonzero;stroke:#000000;stroke-width:1.41753;stroke-linecap:round;stroke-linejoin:round;stroke-miterlimit:4;stroke-dasharray:none;stroke-opacity:1"
                 id="path78" /></g></g></g></g></g><g
       id="g88"><g
         id="g90" /><g
         id="g104"><g
           clip-path="url(#clipPath94)"
           opacity="0.989507"
           id="g102"><g
             id="g100"><g
               transform="scale(1,0.999867)"
               id="g98"><path
                 d="m 189.887,43.752 v 62.172 h 12.961 v -40.04 h 11.812 l 11.242,-0.731 13.098,-3.875 8.871,-6.415 3.945,-5.54 2.313,-5.579 -13.754,0.192 -5.266,6.106 -8.812,3.508 -13.078,1.246 H 202.848 V 43.877 Z"
                 style="fill:#ff0000;fill-opacity:1;fill-rule:nonzero;stroke:#000000;stroke-width:1.41753;stroke-linecap:round;stroke-linejoin:round;stroke-miterlimit:4;stroke-dasharray:none;stroke-opacity:1"
                 id="path96" /></g></g></g></g></g><g
       id="g106"><g
         id="g108" /><g
         id="g122"><g
           clip-path="url(#clipPath112)"
           opacity="0.989507"
           id="g120"><g
             id="g118"><g
               transform="scale(1,0.999867)"
               id="g116"><path
                 d="m 320.227,71.068 2.16,8.497 -5.907,12.099 -9.007,3.755 -8.274,0.711 -15.988,-1.871 -12.816,-4.177 v 12.385 l 12.242,3.602 15.988,1.293 11.215,-0.985 10.953,-3.703 8.703,-6.821 5.086,-10.307 0.766,-7.129 -0.934,-7.798 z"
                 style="fill:#ff0000;fill-opacity:1;fill-rule:nonzero;stroke:#000000;stroke-width:1.41753;stroke-linecap:round;stroke-linejoin:round;stroke-miterlimit:4;stroke-dasharray:none;stroke-opacity:1"
                 id="path114" /></g></g></g></g></g><g
       id="g124"><g
         id="g126" /><g
         id="g140"><g
           clip-path="url(#clipPath130)"
           opacity="0.989507"
           id="g138"><g
             id="g136"><g
               transform="scale(1,0.999867)"
               id="g134"><path
                 d="m 272.102,33.512 2.382,7.751 3.832,5.466 10.704,7.677 9.171,3.988 12.082,5.005 6.86,4.239 3.094,3.43 14.187,-0.449 -2.379,-5.599 -5.027,-5.899 -4.477,-3.172 -8.816,-4.614 -6.449,-2.59 -9.348,-3.911 -7.715,-4.567 -3.246,-3.618 -1.48,-3.371 z"
                 style="fill:#0000ff;fill-opacity:1;fill-rule:nonzero;stroke:#000000;stroke-width:1.41753;stroke-linecap:round;stroke-linejoin:round;stroke-miterlimit:4;stroke-dasharray:none;stroke-opacity:1"
                 id="path132" /></g></g></g></g></g><g
       id="g142"
       style="fill:#ffffff;fill-opacity:1"><g
         id="g144"
         style="fill:#ffffff;fill-opacity:1" /><g
         id="g158"
         style="fill:#ffffff;fill-opacity:1"><g
           clip-path="url(#clipPath148)"
           opacity="0.989507"
           id="g156"
           style="fill:#ffffff;fill-opacity:1"><g
             id="g154"
             style="fill:#ffffff;fill-opacity:1"><g
               transform="scale(1,0.999867)"
               id="g152"
               style="fill:#ffffff;fill-opacity:1"><path
                 d="m 297.738,49.104 9.528,-0.359 -1.817,4.625 -0.988,7.404 7.059,-0.516 4.265,-1.969 0.36,8.739 -3.407,-2.297 -8.304,-3.75 -3.758,-1.684 0.16,-5.341 z"
                 style="fill:#ffffff;fill-opacity:1;fill-rule:nonzero;stroke:#000000;stroke-width:1.41753;stroke-linecap:round;stroke-linejoin:round;stroke-miterlimit:4;stroke-dasharray:none;stroke-opacity:1"
                 id="path150" /></g></g></g></g></g><path
       style="fill:#ffffff;stroke:#000000;stroke-width:1.50000004;stroke-linecap:round;stroke-linejoin:round;stroke-opacity:1;fill-opacity:1;stroke-miterlimit:4;stroke-dasharray:none"
       d="M 7.27,26.996409 17.16,39.159791 24.567355,24.649838 33.428599,17.538532 45.112646,13.186536 57.856505,13.54317 74.238,18.64452 79.422002,7.698976 68.507443,3.5704881 55.589717,1.8953198 43.202491,2.5017746 30.296633,5.2806671 20.134064,10.478852 13.001395,17.848287 7.27,26.996409"
       id="path404" /><path
       style="fill:#ffffff;stroke:#000000;stroke-width:1.50000004;stroke-linecap:round;stroke-linejoin:round;stroke-opacity:1;fill-opacity:1;paint-order:normal;stroke-miterlimit:4;stroke-dasharray:none"
       d="m 111.813,34.156457 12.281,0.311958 -10.539,28.094263 h 32.55 l -10.238,-27.637324 12.363,-0.04299 12.731,32.832633 -62.362997,0.389948 z"
       id="path1782" /><path
       style="fill:#ffffff;stroke:#000000;stroke-width:1.50000004;stroke-linecap:round;stroke-linejoin:round;stroke-opacity:1;fill-opacity:1;stroke-miterlimit:4;stroke-dasharray:none"
       d="m 189.887,43.746181 12.961,0.124983 v -29.69105 h 13.105 l 10.36126,0.662669 8.46762,3.430853 6.39739,6.895247 1.46569,8.487017 -2.26996,10.274257 13.754,-0.191975 1.9965,-7.729177 -0.56211,-9.883201 -3.29305,-8.813938 -6.05511,-6.273329 -8.308,-4.7918791 L 229.06621,3.9004233 217.105,3.089589 h -27.218 z"
       id="path2227" /><path
       style="fill:#ffffff;stroke:#000000;stroke-width:1.50000004;stroke-linecap:round;stroke-linejoin:round;stroke-opacity:1;fill-opacity:1;stroke-miterlimit:4;stroke-dasharray:none"
       d="m 272.102,33.507543 13.375,-0.233969 -0.13344,-8.44658 4.12709,-7.624069 7.65514,-3.60286 9.17662,-0.47877 11.46919,1.713099 11.0954,3.665145 4.031,-11.0895246 -10.74611,-3.8946216 -12.94636,-1.6567058 -10.99042,0.4212257 -10.53985,2.7586828 -8.24613,4.776768 -5.2377,6.0968385 -2.32249,8.571828 z"
       id="path2361" /></g></svg>
